<svg width="24" height="24" viewBox="0 0 24 24" fill="none" xmlns="http://www.w3.org/2000/svg">
    <path d="M11.7404 8.93179C8.15584 8.93179 5.25 12.3977 5.25 13.2784C5.25 14.1591 8.15584 17.625 11.7404 17.625C15.3249 17.625 18.2308 14.1591 18.2308 13.2784C18.2308 12.3977 15.3249 8.93179 11.7404 8.93179ZM11.7404 8.93179C10.1632 8.93179 8.88464 10.191 8.88464 11.7443C8.88464 13.2976 10.1632 14.5568 11.7404 14.5568C13.3176 14.5568 14.5962 13.2976 14.5962 11.7443C14.5962 10.191 13.3176 8.93179 11.7404 8.93179ZM18.75 8.93182C16.7731 7.30753 14.4652 6.375 12 6.375C9.53482 6.375 7.22688 7.30753 5.25 8.93182"  stroke-linecap="round"/>
</svg>