<svg aria-hidden="true" style="position: absolute; width: 0; height: 0; overflow: hidden;" version="1.1" xmlns="http://www.w3.org/2000/svg" xmlns:xlink="http://www.w3.org/1999/xlink">
<defs>
<symbol id="icon-logo" viewBox="0 0 115 32">
<path d="M17.902 9.472c0.224-0.023 0.455 0 0.673 0.055 0.645 0.161 1.082 0.557 1.414 1.111 0.264-0.028 0.531-0.012 0.79 0.048 0.552 0.137 1.028 0.481 1.327 0.958 0.147 0.235 0.245 0.498 0.288 0.771s0.029 0.552-0.041 0.82c-0.185 0.698-0.627 1.061-1.231 1.409 0.017 0.428 0.010 0.859 0.011 1.287 0 0.271 0.018 0.553-0.008 0.822-0.011 0.114-0.034 0.207-0.093 0.306-0.087 0.062-0.175 0.081-0.281 0.093-0.276 0.033-0.576 0.011-0.854 0.010l-1.641-0.006c-0.584 0.043-1.202 0.002-1.789 0.003-0.391 0-0.831 0.046-1.217 0.003-0.138-0.015-0.197-0.106-0.272-0.207-0.049-0.769-0.007-1.563-0.007-2.335-0.321-0.164-0.595-0.366-0.819-0.649-0.167-0.211-0.29-0.453-0.361-0.712s-0.090-0.529-0.055-0.794c0.084-0.566 0.39-1.076 0.853-1.42 0.458-0.338 0.999-0.476 1.563-0.398 0.079-0.136 0.157-0.273 0.254-0.397 0.376-0.479 0.899-0.702 1.495-0.777zM17.933 10.416c-0.366 0.072-0.682 0.203-0.903 0.52-0.124 0.177-0.237 0.687-0.391 0.765-0.204 0.024-0.418-0.070-0.615-0.113-0.397-0.086-0.846 0.071-1.092 0.39-0.202 0.262-0.298 0.624-0.243 0.95 0.049 0.295 0.229 0.542 0.476 0.71 0.269 0.184 0.569 0.221 0.755 0.51 0.034 0.67 0.009 1.351 0.010 2.023 0.782-0.006 1.564-0.008 2.346-0.005l1.91-0.004c-0-0.34-0.074-2.033 0.085-2.199 0.075-0.078 0.246-0.125 0.347-0.165 0.455-0.177 0.788-0.484 0.829-0.988 0.028-0.333-0.081-0.633-0.305-0.881-0.204-0.226-0.47-0.346-0.777-0.364-0.269-0.016-0.823 0.238-0.993 0.049-0.082-0.092-0.115-0.25-0.157-0.366-0.172-0.476-0.532-0.753-1.039-0.818-0.081-0.011-0.161-0.015-0.243-0.013z"></path>
<path d="M26.923 6.521c0.169-0.012 0.373-0.010 0.506 0.112 0.125 0.114 0.13 0.296 0.089 0.447-0.101 0.367-0.423 0.807-0.617 1.141-0.31 0.534-0.6 1.084-0.901 1.624-0.186 0.335-0.412 0.677-0.561 1.026-0.047 0.111-0.083 0.228-0.078 0.35 0.005 0.106 0.042 0.186 0.124 0.255 0.115 0.098 0.268 0.175 0.425 0.154 0.104-0.014 0.188-0.068 0.252-0.149 0.221-0.275 0.352-0.657 0.513-0.968l1.113-2.149c0.132-0.257 0.248-0.572 0.433-0.794 0.098-0.117 0.189-0.173 0.345-0.186 0.123-0.010 0.243 0.021 0.339 0.101 0.113 0.095 0.165 0.248 0.143 0.391-0.043 0.276-0.289 0.611-0.42 0.863l-1.011 1.982c-0.18 0.357-0.392 0.723-0.537 1.095-0.034 0.087-0.067 0.184-0.055 0.278 0.015 0.11 0.096 0.207 0.186 0.269 0.1 0.070 0.235 0.116 0.358 0.089 0.141-0.031 0.24-0.133 0.319-0.246 0.18-0.257 0.299-0.595 0.431-0.88l0.863-1.829c0.163-0.347 0.311-0.755 0.527-1.070 0.078-0.113 0.162-0.204 0.305-0.226 0.145-0.022 0.292 0.039 0.402 0.13 0.091 0.076 0.16 0.165 0.164 0.286 0.011 0.311-0.56 1.39-0.715 1.737l-0.612 1.367c-0.3 0.674-0.557 1.349-1.063 1.907-0.499 0.549-1.066 0.782-1.75 1.027-0.144 0.052-0.366 0.103-0.488 0.19-0.242 0.173-0.411 0.493-0.553 0.745-0.109 0.194-0.248 0.405-0.317 0.617-0.101 0.312-0.034 1.267-0.034 1.644l-0.001 4.867 0.003 1.488c0.001 0.291 0.018 0.596-0.014 0.886-0.012 0.106-0.054 0.224-0.133 0.3-0.237 0.23-1.11 0.149-1.446 0.147l-2.285-0.003c0.132-0.349 0.294-0.693 0.466-1.025 0.296-0.031 0.601-0.017 0.9-0.018l1.474 0.001 0-6.36c-0.191 0.452-0.434 0.895-0.654 1.334-0.391 0.779-0.778 1.56-1.16 2.343-0.462 0.952-0.931 1.901-1.407 2.846-0.199 0.395-0.376 0.811-0.603 1.192-0.092 0.154-0.203 0.294-0.357 0.393-0.209 0.133-0.462 0.181-0.706 0.132-0.119-0.024-0.231-0.073-0.329-0.142s-0.182-0.158-0.244-0.26c-0.132-0.213-0.166-0.451-0.094-0.69 0.117-0.391 0.365-0.767 0.56-1.125l0.929-1.701c1.125-2.061 2.26-4.12 3.349-6.2 0.257-0.49 0.838-1.419 0.978-1.881 0.152-0.503-0.168-1.104-0.261-1.599-0.084-0.445-0.074-0.873 0.041-1.311 0.048-0.187 0.116-0.369 0.203-0.543 0.149-0.293 0.328-0.573 0.494-0.857l0.858-1.482 0.693-1.201c0.137-0.237 0.267-0.492 0.432-0.71 0.052-0.068 0.116-0.11 0.189-0.153z"></path>
<path d="M11.342 5.63c0.795-0.042 1.607-0.006 2.404-0.005l8.71-0c0.672-0 1.37-0.038 2.040 0.004 0.137 0.009 0.293 0.047 0.396 0.141 0.091 0.083 0.13 0.229 0.147 0.345 0.035 0.236 0.014 0.494 0.014 0.732l-0.006 1.354c-0.332 0.533-0.695 1.051-1.043 1.575 0.031-0.351 0.009-0.716 0.009-1.069l-0-1.984c-3.973 0.003-7.951 0.040-11.923-0.002-0.040 1.625-0.003 3.261-0.003 4.887l0.002 8.989 7.013-0.005c0.307-0 0.634-0.022 0.938 0.016-0.113 0.35-0.328 0.701-0.495 1.031l-7.181-0.013c-0.379 0.001-0.773-0.017-1.148 0.038-0.323 0.046-0.627 0.177-0.88 0.38-0.309 0.247-0.534 0.604-0.566 1-0.028 0.349 0.11 0.686 0.337 0.949 0.213 0.247 0.54 0.434 0.863 0.495 0.472 0.089 1.173 0.026 1.67 0.027l3.377 0.003c0.628 0.001 1.268-0.026 1.893 0.020-0.111 0.325-0.213 0.676-0.276 1.013-0.566-0.050-1.169-0.009-1.741-0.009l-3.382-0.001c-0.589 0.002-1.258 0.069-1.833-0.054-0.403-0.086-0.782-0.296-1.097-0.555-0.509-0.417-0.829-1.061-0.881-1.708-0.029-0.362-0.008-0.737-0.006-1.1l0.001-1.762-0-6.094-0.001-4.225c-0-0.543-0.051-1.499 0.023-2.012 0.069-0.509 0.288-0.987 0.628-1.375 0.502-0.589 1.22-0.957 1.998-1.024zM11.027 6.767c-0.559 0.227-0.97 0.511-1.208 1.079-0.082 0.196-0.104 0.437-0.111 0.648-0.035 1.034-0.003 2.081-0.002 3.116l0.001 5.978 0.001 2.65c0 0.3-0.056 0.71 0.010 0.996l0.024 0.008 0.037-0.024c0.422-0.312 0.779-0.482 1.297-0.59-0.040-1.477-0.005-2.966-0.003-4.444 0.002-1.661-0.027-3.326-0.008-4.987 0.011-1.087 0.013-2.174 0.007-3.261-0-0.262 0.043-0.944-0.008-1.159l-0.036-0.010z"></path>
<path d="M36.992 20.169v-7.394h-2.907v-1.379h7.444v1.379h-2.907v7.394h-1.629zM45.992 20.169v-1.353l-0.088-0.288v-2.369c0-0.459-0.138-0.815-0.414-1.065-0.276-0.259-0.693-0.388-1.253-0.388-0.376 0-0.748 0.059-1.115 0.175-0.359 0.117-0.664 0.28-0.915 0.489l-0.614-1.14c0.359-0.276 0.785-0.48 1.278-0.614 0.501-0.142 1.019-0.213 1.554-0.213 0.969 0 1.717 0.234 2.243 0.702 0.535 0.46 0.802 1.174 0.802 2.143v3.922h-1.479zM43.887 20.256c-0.501 0-0.94-0.084-1.316-0.251-0.376-0.175-0.668-0.414-0.877-0.714-0.2-0.309-0.301-0.656-0.301-1.040 0-0.376 0.088-0.714 0.263-1.015 0.184-0.301 0.48-0.539 0.89-0.714s0.952-0.263 1.629-0.263h1.942v1.040h-1.83c-0.535 0-0.894 0.088-1.078 0.263-0.184 0.167-0.276 0.376-0.276 0.627 0 0.284 0.113 0.51 0.338 0.677s0.539 0.251 0.94 0.251c0.384 0 0.727-0.088 1.028-0.263 0.309-0.175 0.531-0.434 0.664-0.777l0.263 0.94c-0.15 0.393-0.422 0.698-0.815 0.915-0.384 0.217-0.873 0.326-1.466 0.326zM51.173 20.256c-0.56 0-1.099-0.071-1.617-0.213-0.51-0.15-0.915-0.33-1.215-0.539l0.601-1.19c0.301 0.192 0.66 0.351 1.078 0.476s0.835 0.188 1.253 0.188c0.493 0 0.848-0.067 1.065-0.201 0.226-0.134 0.338-0.313 0.338-0.539 0-0.184-0.075-0.322-0.226-0.413-0.15-0.1-0.347-0.175-0.589-0.226s-0.514-0.096-0.815-0.138c-0.292-0.042-0.589-0.096-0.89-0.163-0.292-0.075-0.56-0.18-0.802-0.313-0.242-0.142-0.439-0.33-0.589-0.564s-0.226-0.543-0.226-0.927c0-0.426 0.121-0.794 0.363-1.103 0.242-0.318 0.581-0.56 1.015-0.727 0.443-0.175 0.965-0.263 1.566-0.263 0.451 0 0.906 0.050 1.366 0.15s0.84 0.242 1.14 0.426l-0.602 1.19c-0.318-0.192-0.639-0.322-0.965-0.388-0.317-0.075-0.635-0.113-0.952-0.113-0.476 0-0.831 0.071-1.065 0.213-0.226 0.142-0.338 0.322-0.338 0.539 0 0.2 0.075 0.351 0.226 0.451s0.347 0.18 0.589 0.238c0.242 0.058 0.51 0.109 0.802 0.15 0.301 0.033 0.597 0.088 0.89 0.163s0.56 0.18 0.802 0.313c0.251 0.125 0.451 0.305 0.601 0.539s0.226 0.539 0.226 0.915c0 0.418-0.125 0.781-0.376 1.090-0.242 0.309-0.589 0.551-1.040 0.727-0.451 0.167-0.99 0.251-1.617 0.251zM57.698 20.256c-0.735 0-1.303-0.188-1.704-0.564-0.401-0.384-0.601-0.948-0.601-1.692v-6.003h1.566v5.965c0 0.317 0.079 0.564 0.238 0.739 0.167 0.175 0.397 0.263 0.689 0.263 0.351 0 0.643-0.092 0.877-0.276l0.439 1.115c-0.184 0.15-0.409 0.263-0.677 0.338s-0.543 0.113-0.827 0.113zM54.289 14.78v-1.253h4.461v1.253h-4.461zM63.039 20.256c-0.743 0-1.395-0.146-1.955-0.439-0.551-0.301-0.982-0.71-1.291-1.228-0.301-0.518-0.451-1.107-0.451-1.767 0-0.668 0.146-1.257 0.439-1.767 0.301-0.518 0.71-0.923 1.228-1.216 0.526-0.292 1.124-0.439 1.792-0.439 0.652 0 1.232 0.142 1.742 0.426s0.911 0.685 1.203 1.203 0.439 1.128 0.439 1.83c0 0.067-0.004 0.142-0.013 0.226 0 0.084-0.004 0.163-0.013 0.238h-5.577v-1.040h4.749l-0.614 0.326c0.008-0.384-0.071-0.723-0.238-1.015s-0.397-0.522-0.689-0.689c-0.284-0.167-0.614-0.251-0.99-0.251-0.384 0-0.723 0.084-1.015 0.251-0.284 0.167-0.51 0.401-0.677 0.702-0.159 0.292-0.238 0.639-0.238 1.040v0.251c0 0.401 0.092 0.756 0.276 1.065s0.443 0.547 0.777 0.714c0.334 0.167 0.718 0.251 1.153 0.251 0.376 0 0.714-0.058 1.015-0.175s0.568-0.301 0.802-0.551l0.84 0.965c-0.301 0.351-0.681 0.622-1.14 0.815-0.451 0.184-0.969 0.276-1.554 0.276zM70.321 20.256c-0.685 0-1.295-0.146-1.83-0.439-0.535-0.301-0.957-0.71-1.266-1.228s-0.464-1.107-0.464-1.767c0-0.668 0.155-1.257 0.464-1.767 0.309-0.518 0.731-0.923 1.266-1.216s1.144-0.439 1.83-0.439c0.694 0 1.307 0.146 1.842 0.439 0.543 0.292 0.965 0.693 1.265 1.203 0.31 0.51 0.464 1.103 0.464 1.779 0 0.66-0.154 1.249-0.464 1.767-0.301 0.518-0.722 0.927-1.265 1.228-0.535 0.292-1.149 0.439-1.842 0.439zM70.321 18.915c0.384 0 0.727-0.084 1.027-0.251s0.535-0.409 0.702-0.727c0.175-0.317 0.263-0.689 0.263-1.115 0-0.434-0.088-0.806-0.263-1.115-0.167-0.317-0.401-0.56-0.702-0.727s-0.639-0.251-1.015-0.251c-0.384 0-0.727 0.084-1.028 0.251-0.292 0.167-0.526 0.409-0.702 0.727-0.175 0.309-0.263 0.681-0.263 1.115 0 0.426 0.088 0.798 0.263 1.115s0.409 0.56 0.702 0.727c0.301 0.167 0.639 0.251 1.015 0.251zM75.014 20.169v-6.692h1.491v1.842l-0.175-0.539c0.201-0.451 0.514-0.794 0.94-1.028 0.435-0.234 0.973-0.351 1.617-0.351v1.491c-0.067-0.017-0.129-0.025-0.188-0.025-0.058-0.008-0.117-0.013-0.175-0.013-0.593 0-1.065 0.175-1.416 0.526-0.351 0.342-0.526 0.856-0.526 1.541v3.246h-1.567zM83.485 20.169v-1.353l-0.088-0.288v-2.369c0-0.459-0.138-0.815-0.413-1.065-0.275-0.259-0.694-0.388-1.254-0.388-0.376 0-0.747 0.059-1.115 0.175-0.359 0.117-0.664 0.28-0.915 0.489l-0.614-1.14c0.359-0.276 0.785-0.48 1.278-0.614 0.501-0.142 1.019-0.213 1.554-0.213 0.969 0 1.717 0.234 2.243 0.702 0.535 0.46 0.802 1.174 0.802 2.143v3.922h-1.479zM81.379 20.256c-0.502 0-0.94-0.084-1.315-0.251-0.376-0.175-0.669-0.414-0.877-0.714-0.201-0.309-0.301-0.656-0.301-1.040 0-0.376 0.088-0.714 0.264-1.015 0.184-0.301 0.48-0.539 0.89-0.714s0.952-0.263 1.629-0.263h1.943v1.040h-1.83c-0.534 0-0.893 0.088-1.078 0.263-0.184 0.167-0.275 0.376-0.275 0.627 0 0.284 0.113 0.51 0.338 0.677s0.539 0.251 0.94 0.251c0.385 0 0.727-0.088 1.028-0.263 0.309-0.175 0.53-0.434 0.664-0.777l0.264 0.94c-0.151 0.393-0.422 0.698-0.815 0.915-0.385 0.217-0.873 0.326-1.466 0.326zM95.044 13.402c0.534 0 1.007 0.104 1.416 0.313 0.418 0.209 0.744 0.53 0.977 0.965 0.234 0.426 0.351 0.977 0.351 1.654v3.835h-1.567v-3.634c0-0.593-0.129-1.036-0.388-1.328s-0.631-0.439-1.116-0.439c-0.342 0-0.647 0.075-0.915 0.226-0.259 0.15-0.463 0.372-0.614 0.664-0.142 0.292-0.213 0.664-0.213 1.115v3.396h-1.567v-3.634c0-0.593-0.129-1.036-0.389-1.328s-0.63-0.439-1.115-0.439c-0.342 0-0.648 0.075-0.915 0.226-0.259 0.15-0.463 0.372-0.614 0.664-0.142 0.292-0.213 0.664-0.213 1.115v3.396h-1.567v-6.692h1.491v1.779l-0.263-0.526c0.225-0.434 0.551-0.764 0.977-0.99 0.434-0.226 0.927-0.338 1.479-0.338 0.626 0 1.169 0.155 1.629 0.464 0.468 0.309 0.777 0.777 0.927 1.403l-0.614-0.213c0.217-0.501 0.576-0.902 1.078-1.203s1.082-0.451 1.742-0.451zM103.537 20.169v-1.353l-0.088-0.288v-2.369c0-0.459-0.138-0.815-0.413-1.065-0.275-0.259-0.694-0.388-1.253-0.388-0.376 0-0.748 0.059-1.116 0.175-0.359 0.117-0.664 0.28-0.915 0.489l-0.614-1.14c0.359-0.276 0.785-0.48 1.278-0.614 0.502-0.142 1.019-0.213 1.554-0.213 0.969 0 1.717 0.234 2.243 0.702 0.535 0.46 0.802 1.174 0.802 2.143v3.922h-1.479zM101.432 20.256c-0.501 0-0.94-0.084-1.315-0.251-0.376-0.175-0.669-0.414-0.877-0.714-0.201-0.309-0.301-0.656-0.301-1.040 0-0.376 0.088-0.714 0.264-1.015 0.184-0.301 0.48-0.539 0.89-0.714s0.952-0.263 1.629-0.263h1.943v1.040h-1.83c-0.535 0-0.894 0.088-1.078 0.263-0.184 0.167-0.275 0.376-0.275 0.627 0 0.284 0.113 0.51 0.338 0.677s0.539 0.251 0.941 0.251c0.384 0 0.726-0.088 1.027-0.263 0.309-0.175 0.53-0.434 0.664-0.777l0.264 0.94c-0.15 0.393-0.422 0.698-0.815 0.915-0.385 0.217-0.873 0.326-1.466 0.326z"></path>
</symbol>
<symbol id="icon-delete" viewBox="0 0 32 32">
<path stroke-linejoin="round" stroke-linecap="round" stroke-miterlimit="4" stroke-width="1.0667" d="M15.733 25.087v-14.031M0.533 5.21h3.508M30.933 5.21h-3.508M21.58 5.21h-11.692M21.58 5.21v-2.338c0-1.292-1.047-2.338-2.338-2.338h-7.015c-1.291 0-2.338 1.047-2.338 2.338v2.338M21.58 5.21h5.846M9.887 5.21h-5.846M27.426 5.21v21.046c0 2.583-2.094 4.677-4.677 4.677h-14.031c-2.583 0-4.677-2.094-4.677-4.677v-21.046"></path>
</symbol>
<symbol id="icon-photo" viewBox="0 0 38 32">
<path stroke-linejoin="miter" stroke-linecap="butt" stroke-miterlimit="4" stroke-width="0.3902" d="M26.149 18.375c0 3.347-3.228 6.060-7.209 6.060s-7.209-2.713-7.209-6.060c0-3.347 3.228-6.060 7.209-6.060s7.209 2.713 7.209 6.060z"></path>
<path stroke-linejoin="miter" stroke-linecap="butt" stroke-miterlimit="4" stroke-width="0.3902" d="M0.195 26.732v-14.77c0-2.482 2.394-4.494 5.347-4.494 2.025 0 3.877-0.962 4.782-2.484l1.212-2.037c1.003-1.686 3.052-2.75 5.294-2.75h4.218c2.242 0 4.292 1.065 5.294 2.75l1.212 2.037c0.906 1.523 2.757 2.484 4.782 2.484 2.953 0 5.347 2.012 5.347 4.494v14.77c0 2.748-2.65 4.976-5.919 4.976h-25.65c-3.269 0-5.919-2.228-5.919-4.976z"></path>
</symbol>
<symbol id="icon-back-to-home" viewBox="0 0 36 32">
<path stroke-linejoin="round" stroke-linecap="round" stroke-miterlimit="4" stroke-width="2.6667" d="M33.333 15.695l-32-0M15.69 1.333l-14.356 14.362 14.356 14.361"></path>
</symbol>
<symbol id="icon-close-modal" viewBox="0 0 32 32">
<path stroke-linejoin="round" stroke-linecap="round" stroke-miterlimit="4" stroke-width="1.1429" d="M0.571 0.571l15.429 15.429M16 16l-15.429 15.429M16 16l15.429 15.429M16 16l15.429-15.429"></path>
</symbol>
<symbol id="icon-chevron-down" viewBox="0 0 53 32">
<path stroke-linejoin="round" stroke-linecap="round" stroke-miterlimit="4" stroke-width="4" d="M50 2l-24 24-24-24"></path>
</symbol>
<symbol id="icon-password-show" viewBox="0 0 38 32">
<path stroke-linejoin="miter" stroke-linecap="round" stroke-miterlimit="4" stroke-width="2" d="M18.308 7.818c-9.559 0-17.308 9.242-17.308 11.591s7.749 11.591 17.308 11.591c9.559 0 17.308-9.243 17.308-11.591s-7.749-11.591-17.308-11.591zM18.308 7.818c-4.206 0-7.615 3.358-7.615 7.5s3.41 7.5 7.615 7.5c4.206 0 7.615-3.358 7.615-7.5s-3.41-7.5-7.616-7.5zM37 7.818c-5.272-4.331-11.426-6.818-18-6.818s-12.728 2.487-18 6.818"></path>
</symbol>
<symbol id="icon-password-hide" viewBox="0 0 34 32">
<path stroke-linejoin="miter" stroke-linecap="round" stroke-miterlimit="4" stroke-width="1.7143" d="M21.796 27.686c-1.862 0.864-3.928 1.427-6.103 1.427-8.193 0-14.835-7.98-14.835-10.007 0-1.149 2.134-4.211 5.475-6.648M28.747 22.312c1.135-1.366 1.78-2.575 1.78-3.207 0-2.028-6.642-10.007-14.835-10.007 3.605 0 6.527 2.899 6.527 6.475M15.692 22.049c-3.605 0-6.527-2.899-6.527-6.475M31.714 9.098c-4.518-3.74-9.794-5.887-15.428-5.887-2.031 0-4.015 0.279-5.934 0.811M0.858 9.098c0.419-0.347 0.844-0.68 1.276-0.998M0.857 0.857l28.653 28.928"></path>
</symbol>
<symbol id="icon-filter" viewBox="0 0 32 32">
<path stroke-linejoin="miter" stroke-linecap="butt" stroke-miterlimit="4" stroke-width="1.1429" d="M3.843 0.571l24.315 0c1.807 0 3.271 1.465 3.271 3.271 0 0.835-0.319 1.638-0.893 2.246l-10.976 11.626v10.077c0 1.684-1.76 2.79-3.277 2.059l-2.549-1.227c-0.791-0.381-1.294-1.181-1.294-2.059v-8.849l-10.976-11.626c-0.573-0.607-0.893-1.411-0.893-2.246 0-1.807 1.465-3.271 3.271-3.271z"></path>
</symbol>
<symbol id="icon-circle-x" viewBox="0 0 32 32">
<path stroke-linejoin="miter" stroke-linecap="butt" stroke-miterlimit="4" stroke-width="1" d="M25.5 16c0 5.247-4.253 9.5-9.5 9.5s-9.5-4.253-9.5-9.5c0-5.247 4.253-9.5 9.5-9.5s9.5 4.253 9.5 9.5z"></path>
<path stroke-linejoin="miter" stroke-linecap="round" stroke-miterlimit="4" stroke-width="1" d="M19.699 12.346l-3.699 3.699M16 16.046l-3.699 3.699M16 16.046l3.699 3.699M16 16.046l-3.699-3.699"></path>
</symbol>
<symbol id="icon-burger" viewBox="0 0 44 32">
<path stroke-linejoin="miter" stroke-linecap="round" stroke-miterlimit="4" stroke-width="2.4615" d="M1.231 1.231h41.846M1.231 30.769h41.846M1.231 16h41.846"></path>
</symbol>
<symbol id="icon-check" viewBox="0 0 38 32">
<path stroke-linejoin="round" stroke-linecap="round" stroke-miterlimit="4" stroke-width="3" d="M9.5 6.441l6.667 7.059 11.333-12"></path>
</symbol>
<symbol id="icon-box" viewBox="0 0 32 32">
<path stroke-linejoin="miter" stroke-linecap="butt" stroke-miterlimit="4" stroke-width="3" d="M16 1.5c3.814 0 6.523 0.003 8.578 0.279 2.012 0.271 3.171 0.779 4.018 1.625s1.354 2.005 1.625 4.018c0.276 2.055 0.279 4.765 0.279 8.578s-0.003 6.523-0.279 8.578c-0.271 2.012-0.779 3.171-1.625 4.018s-2.005 1.354-4.018 1.625c-2.055 0.276-4.765 0.279-8.578 0.279s-6.523-0.003-8.578-0.279c-2.012-0.271-3.171-0.779-4.018-1.625s-1.354-2.005-1.625-4.018c-0.276-2.055-0.279-4.765-0.279-8.578s0.003-6.523 0.279-8.578c0.271-2.012 0.779-3.171 1.625-4.018s2.005-1.354 4.018-1.625c2.055-0.276 4.765-0.279 8.578-0.279z"></path>
</symbol>
<symbol id="icon-logout" viewBox="0 0 34 32">
<path stroke-linejoin="round" stroke-linecap="round" stroke-miterlimit="4" stroke-width="1.0667" d="M11.056 0.533h-5.846c-2.583 0-4.677 2.094-4.677 4.677v21.046c0 2.583 2.094 4.677 4.677 4.677h5.846M8.533 15.733h23.385M24.903 8.718l7.015 7.015-7.015 7.015"></path>
</symbol>
<symbol id="icon-home" viewBox="0 0 32 32">
<path d="M0.8 16.838v0zM0.8 28.87v0zM28.861 31.2v0zM3.138 31.2v0zM31.2 16.838v0zM31.2 28.87v0zM29.963 13.681v0zM19.439 2.302v0zM12.56 2.302v0zM2.037 13.681v0zM11.323 19.551v0zM11.323 30.035v0zM19.508 31.2v0zM12.492 31.2v0zM20.677 19.551v0zM20.677 30.035v0zM19.508 18.386v0zM12.492 18.386v0zM0.8 16.838h-0.8v12.032h1.6v-12.032h-0.8zM28.861 31.2v-0.8h-25.723v1.6h25.723v-0.8zM31.2 16.838h-0.8v12.032h1.6v-12.032h-0.8zM29.963 13.681l0.587-0.543-10.523-11.378-1.175 1.086 10.523 11.378 0.587-0.543zM12.56 2.302l-0.587-0.543-10.523 11.378 1.175 1.086 10.523-11.378-0.587-0.543zM19.439 2.302l0.587-0.543c-2.169-2.345-5.885-2.345-8.054 0l1.175 1.086c1.536-1.661 4.169-1.661 5.704 0l0.587-0.543zM31.2 16.838h0.8c0-1.372-0.518-2.693-1.45-3.701l-1.175 1.086c0.659 0.713 1.025 1.646 1.025 2.614h0.8zM0.8 16.838h0.8c0-0.968 0.366-1.901 1.025-2.614l-1.175-1.086c-0.932 1.008-1.45 2.329-1.45 3.701h0.8zM0.8 28.87h-0.8c0 1.731 1.408 3.13 3.138 3.13v-1.6c-0.852 0-1.538-0.688-1.538-1.53h-0.8zM28.861 31.2v0.8c1.731 0 3.139-1.398 3.139-3.13h-1.6c0 0.842-0.686 1.53-1.539 1.53v0.8zM11.323 19.551h-0.8v10.484h1.6v-10.484h-0.8zM19.508 31.2v-0.8h-7.015v1.6h7.015v-0.8zM20.677 19.551h-0.8v10.484h1.6v-10.484h-0.8zM19.508 18.386v-0.8l-7.015-0v1.6l7.015 0v-0.8zM20.677 19.551h0.8c0-1.088-0.884-1.965-1.969-1.965v1.6c0.207 0 0.369 0.166 0.369 0.365h0.8zM11.323 19.551h0.8c0-0.199 0.163-0.365 0.369-0.365v-1.6c-1.085 0-1.969 0.877-1.969 1.965h0.8zM11.323 30.035h-0.8c0 1.088 0.884 1.965 1.969 1.965v-1.6c-0.207 0-0.369-0.166-0.369-0.365h-0.8zM19.508 31.2v0.8c1.085 0 1.969-0.877 1.969-1.965h-1.6c0 0.199-0.163 0.365-0.369 0.365v0.8z"></path>
</symbol>
<symbol id="icon-save" viewBox="0 0 25 32">
<path stroke-linejoin="round" stroke-linecap="round" stroke-miterlimit="4" stroke-width="0.8889" d="M11.995 0.444c3.248 0 6.11 0.443 7.87 0.795 1.041 0.208 1.867 0.919 2.172 1.911 0.673 2.191 1.631 6.471 1.509 12.84-0.136 7.083-1.444 11.614-2.345 13.922-0.247 0.633-1.054 0.795-1.601 0.219-1.031-1.087-2.48-2.556-3.868-3.755-0.693-0.598-1.382-1.138-2.002-1.531-0.597-0.378-1.212-0.675-1.734-0.675-0.271 0-0.565 0.079-0.856 0.193-0.296 0.116-0.619 0.28-0.957 0.476-0.675 0.391-1.441 0.93-2.222 1.529-1.565 1.2-3.232 2.668-4.422 3.754-0.604 0.551-1.439 0.302-1.623-0.396-0.628-2.382-1.47-6.858-1.47-13.726 0-6.672 0.894-10.81 1.524-12.899 0.291-0.963 1.093-1.648 2.109-1.852 1.755-0.353 4.639-0.804 7.917-0.804z"></path>
</symbol>
<symbol id="icon-clock" viewBox="0 0 32 32">
<path stroke-linejoin="round" stroke-linecap="round" stroke-miterlimit="4" stroke-width="1.0667" d="M15.733 6.379v10.523l7.015 5.846M30.933 15.733c0 8.395-6.805 15.2-15.2 15.2s-15.2-6.805-15.2-15.2c0-8.395 6.805-15.2 15.2-15.2s15.2 6.805 15.2 15.2z"></path>
</symbol>
</defs>
</svg>
