<svg width="33" height="32" viewBox="0 0 33 32" fill="none" xmlns="http://www.w3.org/2000/svg">
    <path
        d="M13.5844 5.91553C13.9143 5.87972 14.2547 5.9161 14.5753 5.9994C15.5249 6.2462 16.1687 6.85251 16.6579 7.70036C17.0468 7.65743 17.4399 7.68246 17.8207 7.77437C18.6335 7.98391 19.3345 8.51041 19.7742 9.24175C19.9913 9.60212 20.1354 10.0036 20.198 10.4223C20.2605 10.8409 20.2401 11.2682 20.1381 11.6786C19.8663 12.7467 19.2143 13.3028 18.3262 13.8356C18.3508 14.4912 18.3415 15.1503 18.343 15.8065C18.3437 16.2211 18.3698 16.6537 18.3307 17.0652C18.3139 17.2398 18.2811 17.3827 18.1939 17.5337C18.0664 17.6285 17.9359 17.6573 17.7808 17.6767C17.3744 17.7275 16.933 17.6931 16.5233 17.6921L14.1071 17.6832C13.2477 17.7493 12.3376 17.6868 11.4729 17.6875C10.8974 17.688 10.2494 17.7581 9.68104 17.6915C9.47827 17.6678 9.39174 17.5289 9.28079 17.3738C9.2091 16.1967 9.26998 14.9804 9.27046 13.799C8.7971 13.5475 8.39446 13.2388 8.06474 12.8049C7.81872 12.4811 7.6378 12.1106 7.53246 11.7147C7.42711 11.3187 7.39943 10.9054 7.45102 10.4984C7.57445 9.63245 8.02559 8.85111 8.70684 8.32349C9.38063 7.80578 10.1782 7.59478 11.0086 7.71331C11.1242 7.50484 11.2395 7.29552 11.383 7.10547C11.9363 6.3726 12.7071 6.03023 13.5844 5.91553ZM13.6306 7.36124C13.0915 7.47125 12.627 7.67166 12.3016 8.15686C12.1196 8.42845 11.9533 9.20889 11.7263 9.32807C11.4258 9.36491 11.1113 9.22127 10.8201 9.1554C10.2355 9.02312 9.57498 9.26434 9.21271 9.75278C8.91476 10.1545 8.77447 10.7083 8.85425 11.207C8.92647 11.658 9.19172 12.0363 9.5547 12.2947C9.95078 12.5768 10.3923 12.6328 10.6659 13.0756C10.7163 14.1015 10.6797 15.1451 10.6812 16.1731C11.8325 16.1639 12.9838 16.1613 14.135 16.1655L16.9472 16.1596C16.9468 15.6385 16.8387 13.0469 17.0728 12.7925C17.1828 12.6732 17.4344 12.6003 17.5832 12.5403C18.2531 12.2694 18.7434 11.7999 18.8045 11.0271C18.8452 10.5167 18.6849 10.058 18.3549 9.6775C18.0544 9.33109 17.6622 9.14734 17.2107 9.11975C16.8144 9.09548 15.9984 9.48458 15.7493 9.19491C15.6281 9.05384 15.5797 8.81181 15.5178 8.63456C15.2643 7.90516 14.7341 7.48183 13.9885 7.38134C13.8688 7.36526 13.751 7.35865 13.6306 7.36124Z"
        fill="white" />
    <path
        d="M26.8666 1.39653C27.116 1.37785 27.4153 1.38121 27.6122 1.56786C27.7956 1.74164 27.8042 2.0205 27.7431 2.25267C27.595 2.81516 27.1205 3.48872 26.8349 4.00032C26.3778 4.8187 25.9513 5.65967 25.5077 6.48684C25.2333 6.99909 24.9011 7.52302 24.6815 8.05827C24.6118 8.2285 24.5588 8.40721 24.5667 8.59386C24.5734 8.75599 24.6286 8.87799 24.7486 8.98441C24.9186 9.13492 25.143 9.25241 25.3738 9.22085C25.5274 9.19987 25.6504 9.11619 25.7455 8.99331C26.071 8.57277 26.2637 7.98705 26.5016 7.51126L28.1408 4.22083C28.3347 3.82742 28.5055 3.34475 28.7776 3.0046C28.9215 2.82475 29.0554 2.73931 29.285 2.71921C29.4666 2.70332 29.6433 2.75207 29.7835 2.87446C29.9494 3.0197 30.0269 3.25354 29.9941 3.47336C29.9311 3.89601 29.5691 4.40932 29.376 4.79455L27.8877 7.82924C27.6223 8.37656 27.311 8.93611 27.097 9.50628C27.0474 9.63887 26.9978 9.78736 27.0164 9.93129C27.0381 10.1 27.1585 10.2482 27.2897 10.3438C27.4366 10.4507 27.6364 10.5217 27.8169 10.4804C28.0245 10.4329 28.1699 10.2771 28.2862 10.1036C28.5509 9.7096 28.7262 9.19208 28.9211 8.75599L30.1917 5.95553C30.431 5.42387 30.6491 4.79952 30.9683 4.31666C31.0831 4.14292 31.2065 4.00425 31.4179 3.97067C31.6319 3.9367 31.8485 4.03001 32.0099 4.16932C32.1445 4.28525 32.2448 4.42132 32.2508 4.60679C32.2664 5.08293 31.4261 6.73582 31.1976 7.26717L30.2972 9.35978C29.855 10.3917 29.4778 11.4262 28.7325 12.28C27.9984 13.1208 27.1633 13.4775 26.1556 13.8525C25.9431 13.9317 25.6173 14.0096 25.4368 14.1435C25.0804 14.4084 24.8321 14.8983 24.623 15.2845C24.4627 15.5815 24.2576 15.9041 24.1569 16.2286C24.0089 16.7066 24.107 18.1687 24.107 18.7456L24.1055 26.198L24.1092 28.4764C24.11 28.9227 24.1361 29.3893 24.0883 29.8325C24.0708 29.9949 24.0089 30.176 23.893 30.2926C23.544 30.6449 22.2582 30.5203 21.7646 30.5176L18.3996 30.513C18.5934 29.9781 18.8332 29.4523 19.0859 28.9438C19.5225 28.8968 19.9714 28.917 20.4105 28.9166L22.5811 28.9178L22.5814 19.1789C22.3003 19.8714 21.9424 20.5486 21.6188 21.2221C21.0432 22.4146 20.4738 23.6103 19.9106 24.809C19.2308 26.2673 18.5402 27.7202 17.8389 29.1677C17.5454 29.7725 17.2849 30.4103 16.9516 30.9926C16.8162 31.2287 16.6529 31.4419 16.4266 31.5936C16.1193 31.7976 15.7463 31.8705 15.3872 31.7965C15.2127 31.7591 15.0476 31.6851 14.9022 31.5793C14.7568 31.4734 14.6344 31.3379 14.5424 31.1813C14.3478 30.8558 14.2982 30.4909 14.4041 30.1248C14.5771 29.5268 14.9413 28.9499 15.2288 28.4019L16.597 25.7979C18.2542 22.6426 19.9251 19.4887 21.5282 16.3045C21.9063 15.554 22.7619 14.1315 22.9677 13.4244C23.1921 12.6549 22.7209 11.7336 22.5829 10.9766C22.4588 10.2959 22.4741 9.64044 22.6426 8.96897C22.7133 8.68197 22.8134 8.40341 22.9412 8.13794C23.16 7.6897 23.424 7.26056 23.6678 6.82615L24.9317 4.55712L25.9517 2.71745C26.153 2.35484 26.3443 1.96414 26.5881 1.63019C26.6641 1.52595 26.7584 1.4621 26.8666 1.39653Z"
        fill="white" />
    <path
        d="M3.92542 0.0329886C5.09547 -0.0305548 6.29146 0.0238567 7.46463 0.0249648L14.1883 0.0275244L20.2887 0.0243911C21.2781 0.0242765 22.3064 -0.0344139 23.2924 0.0306961C23.4941 0.0439932 23.7234 0.102416 23.8759 0.247041C24.0097 0.374013 24.0672 0.597122 24.0929 0.774914C24.1451 1.13554 24.1141 1.53082 24.1134 1.89638L24.1048 3.96974C23.6164 4.78636 23.0818 5.57983 22.5688 6.38076C22.6139 5.84341 22.5826 5.28462 22.5826 4.74445L22.5822 1.7059C16.7328 1.71118 10.8759 1.76647 5.02694 1.70224C4.96785 4.19078 5.02198 6.69511 5.02191 9.18507L5.02512 22.9492L12.9092 22.9458L15.3504 22.9412C15.8022 22.9404 16.2832 22.9075 16.7309 22.9663C16.5646 23.5019 16.2485 24.0399 16.0028 24.5443L7.87603 24.5263L5.42932 24.5252C4.8717 24.5263 4.29082 24.4988 3.73857 24.5829C3.26314 24.6525 2.81524 24.8537 2.44304 25.1648C1.98802 25.5427 1.65673 26.0895 1.60928 26.6963C1.56748 27.2304 1.77123 27.7463 2.10512 28.1494C2.41854 28.5277 2.90022 28.8139 3.37571 28.9071C4.07052 29.0435 5.10315 28.9468 5.83472 28.9491L10.807 28.9537C11.7315 28.9545 12.6732 28.914 13.5948 28.9839C13.4311 29.4814 13.2816 30.0198 13.1884 30.5356C12.3545 30.4588 11.4666 30.5215 10.6258 30.5215L5.64641 30.5203C4.77988 30.5226 3.7936 30.6258 2.94805 30.4374C2.35427 30.3052 1.79691 29.9842 1.33253 29.5876C0.583698 28.9487 0.112459 27.9625 0.0359575 26.9718C-0.00680436 26.4177 0.0241396 25.843 0.0265256 25.2871L0.0276816 22.5889L0.0272356 13.258L0.0254835 6.78785C0.024887 5.95563 -0.0497526 4.49218 0.0592584 3.70666C0.161317 2.92763 0.482793 2.19601 0.984326 1.60136C1.72302 0.699574 2.78094 0.135426 3.92542 0.0329886ZM3.46224 1.77361C2.63854 2.12106 2.03402 2.55623 1.68324 3.42528C1.56219 3.72515 1.5299 4.09476 1.51939 4.41771C1.46787 6.00114 1.51544 7.60386 1.51648 9.1897L1.51771 18.3436L1.51834 22.4018C1.51872 22.8616 1.43577 23.4885 1.53374 23.9268L1.56894 23.9394L1.62348 23.9027C2.24429 23.4255 2.77063 23.1645 3.53337 22.9989C3.47376 20.7366 3.52595 18.4574 3.5283 16.1938C3.53095 13.6497 3.48811 11.1002 3.51596 8.55674C3.53201 6.89243 3.5354 5.22801 3.52614 3.56364C3.52591 3.16305 3.58952 2.11865 3.51466 1.78966L3.46224 1.77361Z"
        fill="white" />
</svg>