<svg width="165" height="46" viewBox="0 0 165 46" fill="none" xmlns="http://www.w3.org/2000/svg">
<path d="M25.7335 13.6152C26.0557 13.5816 26.388 13.6157 26.701 13.6939C27.6281 13.9256 28.2567 14.4948 28.7343 15.2907C29.114 15.2504 29.4978 15.2739 29.8696 15.3602C30.6632 15.5569 31.3475 16.0512 31.7769 16.7378C31.9888 17.0761 32.1295 17.453 32.1906 17.846C32.2516 18.239 32.2317 18.6401 32.1321 19.0254C31.8668 20.0281 31.2302 20.5502 30.3631 21.0503C30.3872 21.6659 30.3781 22.2845 30.3795 22.9006C30.3802 23.2898 30.4057 23.6959 30.3675 24.0822C30.3511 24.2461 30.3191 24.3803 30.2339 24.522C30.1094 24.611 29.982 24.638 29.8306 24.6563C29.4339 24.7039 29.0029 24.6717 28.6029 24.6708L26.2438 24.6624C25.4048 24.7244 24.5162 24.6658 23.672 24.6664C23.1101 24.6669 22.4775 24.7327 21.9226 24.6702C21.7246 24.6479 21.6401 24.5175 21.5318 24.3719C21.4618 23.2669 21.5213 22.1251 21.5217 21.016C21.0596 20.7799 20.6665 20.4901 20.3445 20.0827C20.1043 19.7788 19.9277 19.4309 19.8249 19.0593C19.722 18.6876 19.695 18.2995 19.7453 17.9175C19.8658 17.1045 20.3063 16.371 20.9714 15.8757C21.6293 15.3897 22.408 15.1916 23.2187 15.3029C23.3316 15.1072 23.4442 14.9107 23.5843 14.7323C24.1245 14.0443 24.8771 13.7229 25.7335 13.6152ZM25.7787 14.9724C25.2523 15.0757 24.7988 15.2638 24.4812 15.7193C24.3034 15.9743 24.141 16.7069 23.9194 16.8188C23.626 16.8534 23.319 16.7185 23.0347 16.6567C22.464 16.5325 21.819 16.759 21.4653 17.2175C21.1744 17.5946 21.0375 18.1146 21.1154 18.5827C21.1859 19.0061 21.4448 19.3612 21.7992 19.6038C22.1859 19.8686 22.617 19.9212 22.8841 20.3369C22.9333 21.2999 22.8976 22.2797 22.8991 23.2448C24.0231 23.2361 25.1471 23.2337 26.2711 23.2376L29.0167 23.2321C29.0164 22.7429 28.9108 20.31 29.1394 20.0711C29.2468 19.9591 29.4925 19.8907 29.6377 19.8344C30.2918 19.5801 30.7704 19.1393 30.8301 18.4138C30.8698 17.9347 30.7133 17.504 30.3912 17.1468C30.0978 16.8216 29.7149 16.6491 29.2741 16.6232C28.8871 16.6005 28.0904 16.9657 27.8472 16.6938C27.7289 16.5614 27.6816 16.3341 27.6212 16.1677C27.3737 15.483 26.8561 15.0856 26.1281 14.9913C26.0113 14.9762 25.8962 14.97 25.7787 14.9724Z" fill="white"/>
<path d="M38.7012 9.37288C38.9447 9.35534 39.237 9.3585 39.4291 9.53373C39.6082 9.69687 39.6166 9.95865 39.5569 10.1766C39.4124 10.7047 38.949 11.337 38.6702 11.8173C38.224 12.5855 37.8076 13.375 37.3744 14.1515C37.1065 14.6324 36.7822 15.1243 36.5678 15.6268C36.4998 15.7866 36.4481 15.9543 36.4557 16.1296C36.4623 16.2818 36.5161 16.3963 36.6333 16.4962C36.7993 16.6375 37.0184 16.7478 37.2437 16.7182C37.3937 16.6985 37.5138 16.6199 37.6066 16.5046C37.9244 16.1098 38.1126 15.5599 38.3448 15.1132L39.9453 12.0243C40.1346 11.6549 40.3013 11.2018 40.567 10.8825C40.7075 10.7137 40.8382 10.6335 41.0624 10.6146C41.2396 10.5997 41.4122 10.6454 41.549 10.7603C41.711 10.8967 41.7867 11.1162 41.7547 11.3226C41.6932 11.7193 41.3397 12.2012 41.1512 12.5629L39.6981 15.4118C39.439 15.9256 39.135 16.4509 38.9261 16.9861C38.8777 17.1106 38.8293 17.25 38.8475 17.3851C38.8686 17.5435 38.9862 17.6826 39.1143 17.7723C39.2577 17.8727 39.4528 17.9393 39.629 17.9006C39.8317 17.856 39.9737 17.7097 40.0872 17.5469C40.3457 17.177 40.5168 16.6912 40.7071 16.2818L41.9476 13.6528C42.1813 13.1537 42.3942 12.5675 42.7058 12.1142C42.8179 11.9511 42.9384 11.821 43.1448 11.7894C43.3537 11.7575 43.5652 11.8451 43.7228 11.9759C43.8542 12.0847 43.9521 12.2125 43.9579 12.3866C43.9732 12.8336 43.1528 14.3853 42.9296 14.8841L42.0506 16.8486C41.6189 17.8173 41.2506 18.7885 40.5229 19.59C39.8062 20.3794 38.9909 20.7142 38.007 21.0663C37.7996 21.1406 37.4814 21.2137 37.3053 21.3395C36.9573 21.5881 36.7149 22.048 36.5107 22.4106C36.3542 22.6894 36.154 22.9922 36.0557 23.2969C35.9112 23.7456 36.0069 25.1181 36.0069 25.6598L36.0054 32.6559L36.0091 34.7948C36.0098 35.2138 36.0353 35.6518 35.9887 36.0679C35.9716 36.2204 35.9112 36.3904 35.798 36.4998C35.4573 36.8305 34.2019 36.7136 33.72 36.7111L30.4346 36.7068C30.6238 36.2046 30.8579 35.711 31.1047 35.2335C31.5309 35.1894 31.9692 35.2084 32.3979 35.2081L34.5171 35.2092L34.5175 26.0665C34.243 26.7167 33.8936 27.3524 33.5776 27.9846C33.0156 29.1041 32.4597 30.2266 31.9098 31.352C31.2461 32.7209 30.5718 34.0849 29.8871 35.4438C29.6007 36.0116 29.3462 36.6103 29.0208 37.1569C28.8887 37.3786 28.7293 37.5788 28.5083 37.7212C28.2082 37.9127 27.8441 37.9811 27.4935 37.9117C27.3231 37.8765 27.1619 37.8071 27.02 37.7077C26.8781 37.6083 26.7585 37.4811 26.6687 37.3341C26.4787 37.0285 26.4303 36.686 26.5337 36.3423C26.7026 35.7809 27.0582 35.2393 27.3388 34.7249L28.6747 32.2803C30.2926 29.3182 31.924 26.3574 33.4892 23.3681C33.8583 22.6636 34.6936 21.3282 34.8946 20.6644C35.1137 19.942 34.6536 19.0771 34.5189 18.3665C34.3977 17.7274 34.4126 17.1121 34.5771 16.4817C34.6462 16.2123 34.7439 15.9508 34.8687 15.7016C35.0824 15.2808 35.3401 14.8779 35.5781 14.4701L36.8121 12.34L37.8079 10.6129C38.0045 10.2725 38.1912 9.90574 38.4293 9.59223C38.5035 9.49438 38.5956 9.43444 38.7012 9.37288Z" fill="white"/>
<path d="M16.3032 8.0928C17.4456 8.03314 18.6132 8.08422 19.7587 8.08526L26.3232 8.08767L32.2792 8.08473C33.2452 8.08462 34.2491 8.02952 35.2118 8.09065C35.4088 8.10313 35.6326 8.15797 35.7815 8.29374C35.9122 8.41294 35.9682 8.62239 35.9933 8.7893C36.0443 9.12785 36.0141 9.49893 36.0134 9.8421L36.005 11.7885C35.5282 12.5551 35.0062 13.3 34.5053 14.0519C34.5494 13.5475 34.5188 13.0229 34.5188 12.5158L34.5184 9.66329C28.8074 9.66824 23.0892 9.72014 17.3787 9.65985C17.321 11.996 17.3738 14.347 17.3738 16.6845L17.3769 29.6059L25.0743 29.6027L27.4578 29.5984C27.8989 29.5977 28.3685 29.5668 28.8056 29.622C28.6433 30.1248 28.3346 30.6299 28.0947 31.1034L20.1603 31.0865L17.7715 31.0855C17.2271 31.0865 16.66 31.0607 16.1208 31.1396C15.6566 31.205 15.2193 31.3939 14.8559 31.6859C14.4117 32.0407 14.0882 32.554 14.0419 33.1236C14.0011 33.6251 14.2 34.1094 14.526 34.4878C14.832 34.8429 15.3023 35.1116 15.7665 35.1991C16.4449 35.3272 17.4531 35.2364 18.1673 35.2386L23.0219 35.2429C23.9245 35.2436 24.8439 35.2056 25.7437 35.2712C25.5839 35.7382 25.438 36.2437 25.347 36.7279C24.5328 36.6558 23.6659 36.7146 22.845 36.7146L17.9835 36.7136C17.1374 36.7157 16.1745 36.8126 15.349 36.6357C14.7693 36.5116 14.2251 36.2103 13.7717 35.838C13.0406 35.2382 12.5805 34.3124 12.5058 33.3823C12.4641 32.8621 12.4943 32.3226 12.4966 31.8007L12.4977 29.2677L12.4973 20.5081L12.4956 14.4341C12.495 13.6528 12.4221 12.279 12.5286 11.5415C12.6282 10.8102 12.9421 10.1234 13.4317 9.56515C14.1529 8.71857 15.1858 8.18896 16.3032 8.0928ZM15.851 9.72685C15.0468 10.053 14.4566 10.4616 14.1141 11.2774C13.9959 11.5589 13.9644 11.9059 13.9541 12.2091C13.9038 13.6955 13.9503 15.2001 13.9513 16.6889L13.9525 25.2824L13.9531 29.0921C13.9535 29.5237 13.8725 30.1123 13.9681 30.5237L14.0025 30.5356L14.0558 30.5011C14.6619 30.0531 15.1758 29.8081 15.9204 29.6526C15.8622 27.5289 15.9132 25.3891 15.9155 23.2642C15.9181 20.8758 15.8763 18.4824 15.9034 16.0947C15.9191 14.5323 15.9224 12.9698 15.9134 11.4073C15.9132 11.0312 15.9753 10.0508 15.9022 9.74192L15.851 9.72685Z" fill="white"/>
<path d="M53.1751 28.9913V18.3631H48.9959V16.3815H59.6962V18.3631H55.5169V28.9913H53.1751ZM66.1135 28.9913V27.0458L65.9874 26.6314V23.2268C65.9874 22.5663 65.7892 22.0559 65.3929 21.6956C64.9966 21.3233 64.3962 21.1372 63.5915 21.1372C63.0511 21.1372 62.5167 21.2213 61.9883 21.3894C61.4719 21.5575 61.0336 21.7917 60.6733 22.0919L59.7906 20.4527C60.307 20.0564 60.9195 19.7621 61.628 19.57C62.3486 19.3658 63.0931 19.2637 63.8617 19.2637C65.2548 19.2637 66.3296 19.6 67.0862 20.2725C67.8548 20.933 68.2391 21.9598 68.2391 23.3529V28.9913H66.1135ZM63.0871 29.1174C62.3666 29.1174 61.7361 28.9973 61.1957 28.7571C60.6553 28.5049 60.2349 28.1626 59.9347 27.7303C59.6465 27.286 59.5024 26.7876 59.5024 26.2351C59.5024 25.6947 59.6285 25.2083 59.8807 24.776C60.1449 24.3437 60.5712 24.0014 61.1596 23.7492C61.7481 23.497 62.5287 23.3709 63.5015 23.3709H66.2936V24.8661H63.6636C62.895 24.8661 62.3786 24.9922 62.1144 25.2444C61.8502 25.4846 61.7181 25.7848 61.7181 26.1451C61.7181 26.5534 61.8802 26.8776 62.2045 27.1178C62.5287 27.358 62.9791 27.4781 63.5555 27.4781C64.1079 27.4781 64.6003 27.352 65.0326 27.0998C65.477 26.8476 65.7952 26.4753 65.9874 25.9829L66.3657 27.334C66.1495 27.8984 65.7592 28.3368 65.1948 28.649C64.6423 28.9612 63.9398 29.1174 63.0871 29.1174ZM73.5608 29.1174C72.7562 29.1174 71.9816 29.0153 71.237 28.8111C70.5045 28.595 69.922 28.3368 69.4897 28.0365L70.3544 26.3252C70.7867 26.6014 71.3031 26.8296 71.9036 27.0097C72.504 27.1899 73.1045 27.2799 73.7049 27.2799C74.4135 27.2799 74.9239 27.1839 75.2361 26.9917C75.5604 26.7996 75.7225 26.5414 75.7225 26.2171C75.7225 25.9529 75.6144 25.7548 75.3983 25.6227C75.1821 25.4786 74.8999 25.3705 74.5516 25.2984C74.2033 25.2264 73.813 25.1603 73.3807 25.1003C72.9604 25.0402 72.534 24.9622 72.1017 24.8661C71.6814 24.758 71.2971 24.6079 70.9488 24.4157C70.6005 24.2116 70.3183 23.9414 70.1022 23.6051C69.886 23.2688 69.7779 22.8245 69.7779 22.2721C69.7779 21.6596 69.952 21.1312 70.3003 20.6869C70.6486 20.2305 71.135 19.8822 71.7594 19.642C72.3959 19.3898 73.1465 19.2637 74.0112 19.2637C74.6597 19.2637 75.3142 19.3358 75.9747 19.4799C76.6352 19.624 77.1816 19.8282 77.614 20.0924L76.7493 21.8037C76.2929 21.5275 75.8306 21.3414 75.3622 21.2453C74.9059 21.1372 74.4495 21.0832 73.9932 21.0832C73.3086 21.0832 72.7982 21.1852 72.462 21.3894C72.1377 21.5936 71.9756 21.8518 71.9756 22.164C71.9756 22.4522 72.0837 22.6684 72.2999 22.8125C72.516 22.9566 72.7982 23.0707 73.1465 23.1548C73.4948 23.2388 73.8791 23.3109 74.2994 23.3709C74.7317 23.419 75.1581 23.497 75.5784 23.6051C75.9987 23.7132 76.383 23.8633 76.7313 24.0555C77.0916 24.2356 77.3798 24.4938 77.596 24.8301C77.8121 25.1663 77.9202 25.6047 77.9202 26.1451C77.9202 26.7455 77.7401 27.2679 77.3798 27.7123C77.0315 28.1566 76.5331 28.5049 75.8846 28.7571C75.2361 28.9973 74.4615 29.1174 73.5608 29.1174ZM82.9398 29.1174C81.8829 29.1174 81.0663 28.8472 80.4899 28.3067C79.9134 27.7543 79.6252 26.9437 79.6252 25.8749V17.2462H81.8769V25.8208C81.8769 26.2772 81.991 26.6314 82.2192 26.8836C82.4594 27.1358 82.7896 27.2619 83.21 27.2619C83.7144 27.2619 84.1347 27.1298 84.4709 26.8656L85.1014 28.4689C84.8372 28.685 84.513 28.8472 84.1287 28.9552C83.7444 29.0633 83.3481 29.1174 82.9398 29.1174ZM78.04 21.2453V19.4439H84.4529V21.2453H78.04ZM90.6182 29.1174C89.5494 29.1174 88.6126 28.9072 87.808 28.4869C87.0154 28.0545 86.3969 27.4661 85.9526 26.7215C85.5203 25.9769 85.3041 25.1303 85.3041 24.1816C85.3041 23.2208 85.5142 22.3742 85.9346 21.6416C86.3669 20.897 86.9554 20.3146 87.6999 19.8942C88.4565 19.4739 89.3152 19.2637 90.2759 19.2637C91.2127 19.2637 92.0473 19.4679 92.7799 19.8762C93.5124 20.2845 94.0889 20.861 94.5092 21.6056C94.9295 22.3501 95.1397 23.2268 95.1397 24.2356C95.1397 24.3317 95.1337 24.4398 95.1217 24.5598C95.1217 24.6799 95.1157 24.794 95.1037 24.9021H87.0875V23.407H93.9147L93.0321 23.8753C93.0441 23.3229 92.93 22.8365 92.6898 22.4162C92.4496 21.9959 92.1194 21.6656 91.699 21.4254C91.2907 21.1852 90.8163 21.0651 90.2759 21.0651C89.7235 21.0651 89.2371 21.1852 88.8168 21.4254C88.4085 21.6656 88.0842 22.0019 87.844 22.4342C87.6159 22.8545 87.5018 23.3529 87.5018 23.9294V24.2896C87.5018 24.8661 87.6339 25.3765 87.8981 25.8208C88.1623 26.2652 88.5346 26.6074 89.015 26.8476C89.4953 27.0878 90.0478 27.2079 90.6722 27.2079C91.2127 27.2079 91.699 27.1238 92.1314 26.9557C92.5637 26.7876 92.948 26.5234 93.2843 26.1631L94.4912 27.5502C94.0589 28.0545 93.5124 28.4448 92.8519 28.7211C92.2034 28.9853 91.4588 29.1174 90.6182 29.1174ZM101.086 29.1174C100.101 29.1174 99.2241 28.9072 98.4555 28.4869C97.6869 28.0545 97.0805 27.4661 96.6361 26.7215C96.1918 25.9769 95.9696 25.1303 95.9696 24.1816C95.9696 23.2208 96.1918 22.3742 96.6361 21.6416C97.0805 20.897 97.6869 20.3146 98.4555 19.8942C99.2241 19.4739 100.101 19.2637 101.086 19.2637C102.082 19.2637 102.965 19.4739 103.734 19.8942C104.514 20.3146 105.121 20.891 105.553 21.6236C105.997 22.3561 106.22 23.2088 106.22 24.1816C106.22 25.1303 105.997 25.9769 105.553 26.7215C105.121 27.4661 104.514 28.0545 103.734 28.4869C102.965 28.9072 102.082 29.1174 101.086 29.1174ZM101.086 27.1899C101.638 27.1899 102.13 27.0698 102.563 26.8296C102.995 26.5894 103.331 26.2411 103.571 25.7848C103.824 25.3284 103.95 24.794 103.95 24.1816C103.95 23.5571 103.824 23.0227 103.571 22.5783C103.331 22.122 102.995 21.7737 102.563 21.5335C102.13 21.2933 101.644 21.1732 101.104 21.1732C100.551 21.1732 100.059 21.2933 99.6264 21.5335C99.2061 21.7737 98.8698 22.122 98.6176 22.5783C98.3655 23.0227 98.2394 23.5571 98.2394 24.1816C98.2394 24.794 98.3655 25.3284 98.6176 25.7848C98.8698 26.2411 99.2061 26.5894 99.6264 26.8296C100.059 27.0698 100.545 27.1899 101.086 27.1899ZM107.832 28.9913V19.3718H109.976V22.0199L109.724 21.2453C110.012 20.5968 110.462 20.1044 111.075 19.7681C111.699 19.4319 112.474 19.2637 113.399 19.2637V21.4074C113.303 21.3834 113.212 21.3714 113.128 21.3714C113.044 21.3594 112.96 21.3534 112.876 21.3534C112.024 21.3534 111.345 21.6056 110.841 22.11C110.336 22.6023 110.084 23.3409 110.084 24.3257V28.9913H107.832ZM120.009 28.9913V27.0458L119.883 26.6314V23.2268C119.883 22.5663 119.685 22.0559 119.288 21.6956C118.892 21.3233 118.292 21.1372 117.487 21.1372C116.947 21.1372 116.412 21.2213 115.884 21.3894C115.367 21.5575 114.929 21.7917 114.569 22.0919L113.686 20.4527C114.202 20.0564 114.815 19.7621 115.523 19.57C116.244 19.3658 116.989 19.2637 117.757 19.2637C119.15 19.2637 120.225 19.6 120.982 20.2725C121.75 20.933 122.135 21.9598 122.135 23.3529V28.9913H120.009ZM116.983 29.1174C116.262 29.1174 115.632 28.9973 115.091 28.7571C114.551 28.5049 114.13 28.1626 113.83 27.7303C113.542 27.286 113.398 26.7876 113.398 26.2351C113.398 25.6947 113.524 25.2083 113.776 24.776C114.04 24.3437 114.467 24.0014 115.055 23.7492C115.644 23.497 116.424 23.3709 117.397 23.3709H120.189V24.8661H117.559C116.79 24.8661 116.274 24.9922 116.01 25.2444C115.746 25.4846 115.614 25.7848 115.614 26.1451C115.614 26.5534 115.776 26.8776 116.1 27.1178C116.424 27.358 116.874 27.4781 117.451 27.4781C118.003 27.4781 118.496 27.352 118.928 27.0998C119.372 26.8476 119.691 26.4753 119.883 25.9829L120.261 27.334C120.045 27.8984 119.655 28.3368 119.09 28.649C118.538 28.9612 117.835 29.1174 116.983 29.1174ZM136.625 19.2637C137.394 19.2637 138.072 19.4139 138.661 19.7141C139.261 20.0143 139.73 20.4767 140.066 21.1012C140.402 21.7136 140.57 22.5063 140.57 23.479V28.9913H138.319V23.7672C138.319 22.9146 138.133 22.2781 137.76 21.8578C137.388 21.4374 136.854 21.2273 136.157 21.2273C135.665 21.2273 135.226 21.3354 134.842 21.5515C134.47 21.7677 134.175 22.0859 133.959 22.5063C133.755 22.9266 133.653 23.461 133.653 24.1095V28.9913H131.401V23.7672C131.401 22.9146 131.215 22.2781 130.843 21.8578C130.471 21.4374 129.936 21.2273 129.24 21.2273C128.747 21.2273 128.309 21.3354 127.925 21.5515C127.552 21.7677 127.258 22.0859 127.042 22.5063C126.838 22.9266 126.736 23.461 126.736 24.1095V28.9913H124.484V19.3718H126.628V21.9298L126.249 21.1732C126.574 20.5487 127.042 20.0744 127.654 19.7501C128.279 19.4259 128.987 19.2637 129.78 19.2637C130.681 19.2637 131.461 19.4859 132.122 19.9303C132.794 20.3746 133.239 21.0471 133.455 21.9478L132.572 21.6416C132.884 20.921 133.401 20.3446 134.121 19.9123C134.842 19.4799 135.677 19.2637 136.625 19.2637ZM148.834 28.9913V27.0458L148.708 26.6314V23.2268C148.708 22.5663 148.51 22.0559 148.113 21.6956C147.717 21.3233 147.117 21.1372 146.312 21.1372C145.772 21.1372 145.237 21.2213 144.709 21.3894C144.192 21.5575 143.754 21.7917 143.394 22.0919L142.511 20.4527C143.028 20.0564 143.64 19.7621 144.349 19.57C145.069 19.3658 145.814 19.2637 146.582 19.2637C147.975 19.2637 149.05 19.6 149.807 20.2725C150.575 20.933 150.96 21.9598 150.96 23.3529V28.9913H148.834ZM145.808 29.1174C145.087 29.1174 144.457 28.9973 143.916 28.7571C143.376 28.5049 142.955 28.1626 142.655 27.7303C142.367 27.286 142.223 26.7876 142.223 26.2351C142.223 25.6947 142.349 25.2083 142.601 24.776C142.865 24.3437 143.292 24.0014 143.88 23.7492C144.469 23.497 145.249 23.3709 146.222 23.3709H149.014V24.8661H146.384C145.616 24.8661 145.099 24.9922 144.835 25.2444C144.571 25.4846 144.439 25.7848 144.439 26.1451C144.439 26.5534 144.601 26.8776 144.925 27.1178C145.249 27.358 145.7 27.4781 146.276 27.4781C146.828 27.4781 147.321 27.352 147.753 27.0998C148.198 26.8476 148.516 26.4753 148.708 25.9829L149.086 27.334C148.87 27.8984 148.48 28.3368 147.915 28.649C147.363 28.9612 146.66 29.1174 145.808 29.1174Z" fill="white"/>
</svg>
